<svg width="32" height="32" viewBox="0 0 32 32" fill="none" xmlns="http://www.w3.org/2000/svg">
<path d="M20.1998 15.4C20.1998 15.9516 20.0911 16.4977 19.8801 17.0073C19.669 17.5169 19.3596 17.9799 18.9696 18.3699C18.5796 18.7599 18.1166 19.0692 17.607 19.2803C17.0975 19.4914 16.5513 19.6 15.9998 19.6C15.4482 19.6 14.9021 19.4914 14.3925 19.2803C13.883 19.0692 13.42 18.7599 13.0299 18.3699C12.6399 17.9799 12.3306 17.5169 12.1195 17.0073C11.9084 16.4977 11.7998 15.9516 11.7998 15.4C11.7998 14.2861 12.2423 13.2178 13.0299 12.4302C13.8176 11.6425 14.8859 11.2 15.9998 11.2C17.1137 11.2 18.182 11.6425 18.9696 12.4302C19.7573 13.2178 20.1998 14.2861 20.1998 15.4Z" stroke="white" stroke-width="1.5" stroke-linecap="round" stroke-linejoin="round"/>
<path d="M26.7999 17.92C27.1791 17.8144 27.5791 17.7612 27.9999 17.7604V13.0396C24.5715 13.0396 22.3431 9.316 24.0783 6.3604L19.9215 4C18.1647 6.9928 13.8375 6.9928 12.0808 4L7.92398 6.3604C9.65917 9.316 7.42838 13.0396 4 13.0396V17.7604C7.42838 17.7604 9.65677 21.484 7.92158 24.4396L12.0784 26.8C12.4769 26.114 13.0493 25.5453 13.7378 25.1511C14.4263 24.7569 15.2066 24.5512 15.9999 24.5548" stroke="white" stroke-width="1.5" stroke-linecap="round" stroke-linejoin="round"/>
<path d="M23.8001 19.6L24.1097 20.4364C24.5153 21.5332 24.7181 22.0816 25.1177 22.4812C25.5185 22.882 26.0669 23.0848 27.1637 23.4904L28 23.8L27.1637 24.1096C26.0669 24.5152 25.5185 24.718 25.1189 25.1176C24.7181 25.5184 24.5153 26.0668 24.1097 27.1636L23.8001 28L23.4905 27.1636C23.0849 26.0668 22.8821 25.5184 22.4825 25.1188C22.0817 24.718 21.5333 24.5152 20.4365 24.1096L19.6001 23.8L20.4365 23.4904C21.5333 23.0848 22.0817 22.882 22.4813 22.4824C22.8821 22.0816 23.0849 21.5332 23.4905 20.4364L23.8001 19.6Z" stroke="white" stroke-width="1.5" stroke-linecap="round" stroke-linejoin="round"/>
</svg>
