<svg width="32" height="32" viewBox="0 0 32 32" fill="none" xmlns="http://www.w3.org/2000/svg">
<path fill-rule="evenodd" clip-rule="evenodd" d="M23.1174 12.6213C23.2241 13.408 23.8907 14.008 24.6641 14.008C25.4507 14.008 26.1041 13.408 26.2108 12.608C26.3841 11.1813 27.5174 10.048 28.9441 9.87465C29.7307 9.76798 30.3307 9.11465 30.3307 8.32798C30.3307 7.54132 29.7307 6.88798 28.9307 6.78132C28.236 6.69472 27.59 6.3789 27.0949 5.88384C26.5998 5.38877 26.284 4.74274 26.1974 4.04798C26.0907 3.26132 25.4374 2.66132 24.6507 2.66132C23.8641 2.66132 23.2107 3.26132 23.1041 4.06132C23.0153 4.7552 22.6988 5.40001 22.2041 5.89467C21.7094 6.38932 21.0646 6.70585 20.3707 6.79465C19.5841 6.90132 18.9841 7.55465 18.9841 8.34132C18.9841 9.12798 19.5841 9.78132 20.3841 9.88798C21.8107 10.0613 22.9441 11.1946 23.1174 12.6213ZM24.6641 10.8213C24.1571 9.72712 23.2783 8.84832 22.1841 8.34132C23.2774 7.83465 24.1574 6.95465 24.6641 5.86132C25.1707 6.95465 26.0507 7.83465 27.1441 8.34132C26.0507 8.84798 25.1707 9.72798 24.6641 10.8213ZM15.3334 31.3386C21.2001 31.3386 24.1601 31.3386 26.3067 29.4986C26.6134 29.232 26.8934 28.952 27.1601 28.6453C29.0001 26.4986 29.0001 23.552 29.0001 17.672C29.0001 17.1253 28.5467 16.672 28.0001 16.672C27.4534 16.672 27.0001 17.1253 27.0001 17.672C27.0001 23.0586 27.0001 25.7653 25.6401 27.352C25.4534 27.5786 25.2401 27.792 25.0134 27.9786C23.4267 29.3386 20.7201 29.3386 15.3334 29.3386C9.94675 29.3386 7.24008 29.3386 5.65341 27.9786C5.42675 27.792 5.21341 27.5786 5.02675 27.352C3.66675 25.7653 3.66675 23.0586 3.66675 17.672C3.66675 12.2853 3.66675 9.57865 5.02675 7.99198C5.21341 7.76532 5.42675 7.55198 5.65341 7.36532C7.24008 6.00532 9.94675 6.00532 15.3334 6.00532C15.8801 6.00532 16.3334 5.55198 16.3334 5.00532C16.3334 4.45865 15.8801 4.00532 15.3334 4.00532C9.46675 4.00532 6.50675 4.00532 4.36008 5.84532C4.05341 6.11198 3.77341 6.39198 3.50675 6.69865C1.66675 8.84532 1.66675 11.8053 1.66675 17.672C1.66675 23.5386 1.66675 26.4986 3.50675 28.6453C3.77341 28.952 4.05341 29.2453 4.36008 29.4986C6.50675 31.3386 9.45341 31.3386 15.3334 31.3386ZM11.0014 19.672C11.0014 20.2186 11.4547 20.672 12.0014 20.672C12.5481 20.672 13.0014 20.2186 13.0014 19.672V15.672C13.0014 15.1253 12.5481 14.672 12.0014 14.672C11.4547 14.672 11.0014 15.1253 11.0014 15.672V19.672ZM16.0014 24.672C15.4547 24.672 15.0014 24.2186 15.0014 23.672V11.672C15.0014 11.1253 15.4547 10.672 16.0014 10.672C16.5481 10.672 17.0014 11.1253 17.0014 11.672V23.672C17.0014 24.2186 16.5481 24.672 16.0014 24.672ZM19.0014 21.0053C19.0014 21.552 19.4548 22.0053 20.0014 22.0053C20.5481 22.0053 21.0014 21.552 21.0014 21.0053V14.3386C21.0014 13.792 20.5481 13.3386 20.0014 13.3386C19.4548 13.3386 19.0014 13.792 19.0014 14.3386V21.0053ZM8.00008 19.3386C7.45341 19.3386 7.00008 18.8853 7.00008 18.3386V17.0053C7.00008 16.4586 7.45341 16.0053 8.00008 16.0053C8.54675 16.0053 9.00008 16.4586 9.00008 17.0053V18.3386C9.00008 18.8853 8.54675 19.3386 8.00008 19.3386Z" fill="white"/>
</svg>
