<svg width="28" height="28" viewBox="0 0 28 28" fill="none" xmlns="http://www.w3.org/2000/svg">
<path d="M18.563 13.6597C19.1155 14.3964 19.4142 15.2925 19.4142 16.2134C19.4142 17.1344 19.1155 18.0304 18.563 18.7672M21.4265 21.6308C22.138 20.9194 22.7023 20.0748 23.0873 19.1453C23.4723 18.2158 23.6705 17.2195 23.6705 16.2134C23.6705 15.2074 23.4723 14.2111 23.0873 13.2816C22.7023 12.3521 22.138 11.5075 21.4265 10.7961M14.3067 10.0011C14.3065 9.88249 14.2713 9.76663 14.2053 9.6681C14.1394 9.56956 14.0457 9.49278 13.9361 9.44743C13.8266 9.40208 13.7061 9.39019 13.5898 9.41328C13.4735 9.43636 13.3666 9.49338 13.2827 9.57714L10.4021 12.4569C10.2909 12.5687 10.1586 12.6574 10.0129 12.7177C9.86726 12.7781 9.71105 12.8089 9.55336 12.8085H7.49675C7.27099 12.8085 7.05447 12.8981 6.89483 13.0578C6.73519 13.2174 6.64551 13.4339 6.64551 13.6597V18.7672C6.64551 18.9929 6.73519 19.2095 6.89483 19.3691C7.05447 19.5287 7.27099 19.6184 7.49675 19.6184H9.55336C9.71105 19.618 9.86726 19.6488 10.0129 19.7092C10.1586 19.7695 10.2909 19.8582 10.4021 19.97L13.2818 22.8506C13.3658 22.9347 13.4728 22.992 13.5893 23.0152C13.7058 23.0385 13.8266 23.0266 13.9364 22.9811C14.0461 22.9356 14.1399 22.8585 14.2058 22.7597C14.2718 22.6608 14.3069 22.5447 14.3067 22.4258V10.0011Z" stroke="#1E51D1" stroke-width="2" stroke-linecap="round" stroke-linejoin="round"/>
<path fill-rule="evenodd" clip-rule="evenodd" d="M4.82139 9.38895C4.86839 9.7356 5.16216 10 5.50294 10C5.84959 10 6.13749 9.73561 6.18449 9.38308C6.26087 8.75441 6.76028 8.25499 7.38895 8.17861C7.73561 8.13161 8 7.84371 8 7.49706C8 7.15041 7.73561 6.86251 7.38308 6.81551C7.07693 6.77735 6.79225 6.63819 6.57409 6.42003C6.35594 6.20188 6.21677 5.9172 6.17861 5.61105C6.13161 5.26439 5.84371 5 5.49706 5C5.15041 5 4.86251 5.26439 4.81551 5.61692C4.77638 5.92269 4.6369 6.20683 4.41893 6.4248C4.20095 6.64278 3.91681 6.78226 3.61105 6.82139C3.2644 6.86839 3 7.15629 3 7.50294C3 7.84959 3.2644 8.13749 3.61692 8.18449C4.24559 8.26087 4.74501 8.76028 4.82139 9.38895ZM5.50294 8.59577C5.27952 8.1136 4.89227 7.72635 4.41011 7.50294C4.89189 7.27967 5.27967 6.89189 5.50294 6.41011C5.7262 6.89189 6.11398 7.27967 6.59577 7.50294C6.11398 7.7262 5.7262 8.11398 5.50294 8.59577Z" fill="#1E51D1"/>
<path fill-rule="evenodd" clip-rule="evenodd" d="M10.2605 7.72775C10.3245 8.19989 10.7246 8.55999 11.1888 8.55999C11.6609 8.55999 12.053 8.19989 12.1171 7.71975C12.2211 6.8635 12.9013 6.1833 13.7575 6.07927C14.2297 6.01525 14.5898 5.62313 14.5898 5.151C14.5898 4.67886 14.2297 4.28674 13.7495 4.22272C13.3326 4.17075 12.9448 3.98121 12.6477 3.68408C12.3506 3.38695 12.161 2.99922 12.1091 2.58224C12.045 2.11011 11.6529 1.75 11.1808 1.75C10.7086 1.75 10.3165 2.11011 10.2525 2.59025C10.1992 3.0067 10.0092 3.3937 9.71236 3.69058C9.41548 3.98746 9.02848 4.17743 8.61203 4.23073C8.13989 4.29475 7.77979 4.68686 7.77979 5.159C7.77979 5.63114 8.13989 6.02325 8.62003 6.08727C9.47628 6.1913 10.1565 6.8715 10.2605 7.72775ZM11.1888 6.64743C10.8845 5.99073 10.3571 5.46329 9.70035 5.159C10.3565 4.85491 10.8847 4.32675 11.1888 3.67056C11.4929 4.32675 12.021 4.85491 12.6772 5.159C12.021 5.46309 11.4929 5.99124 11.1888 6.64743Z" fill="#1E51D1"/>
</svg>
